<svg id="New_York_Cityset" data-name="New York Cityset" xmlns="http://www.w3.org/2000/svg" width="32" height="32" viewBox="0 0 32 32"><defs><style>.cls-1{fill-rule:evenodd;}</style></defs><title>statue-of-liberty</title><path id="statue-of-liberty" class="cls-1" d="M17,20v2h3V20Zm-5,0v2h3V20Zm0,0v2h3V20Zm5,0v2h3V20Zm0,0v2h3V20Zm-5,2h3V20H12Zm12.6-8.23,3.87-6.08L25.92,5.14,19.43,9.25,17.8,2H14.2L12.62,9.25,5.69,4.84,3.14,7.39l4.1,6.42L1,15.2v3.55l7.09,2C8.75,25.15,12.66,30,16,30s7.26-4.85,7.91-9.22l7.09-2V15.2ZM15.8,4h.4l1.59,7.18a9,9,0,0,0-3.58,0Zm.2,9a5.62,5.62,0,0,1,5.29,3.21A11.38,11.38,0,0,0,16,15a11.38,11.38,0,0,0-5.29,1.21A5.62,5.62,0,0,1,16,13ZM8,18.68,3,17.25V16.8l5.83-1.3A9.84,9.84,0,0,0,8,18.68Zm-2.34-11L6,7.4l6.71,4.26a7.3,7.3,0,0,0-3,2.35ZM16,28c-2.34,0-5.8-4.55-6-8.14C10.17,18.4,12.72,17,16,17s5.83,1.4,6,2.86C21.8,23.45,18.34,28,16,28Zm3.36-16.32,6.28-4,.29.26-3.76,5.91A7.37,7.37,0,0,0,19.36,11.68ZM29,17.25l-5,1.43a9.84,9.84,0,0,0-.8-3.18L29,16.8ZM17,22h3V20H17Zm-5,0h3V20H12Zm0-2v2h3V20Zm5,0v2h3V20Zm0,0v2h3V20Zm-5,0v2h3V20Zm5,0v2h3V20Zm-5,0v2h3V20Z"/></svg>